<svg id="Layer_1" data-name="Layer 1" xmlns="http://www.w3.org/2000/svg" viewBox="0 0 13.03 7.08"><defs><style>.cls-1{isolation:isolate;}.cls-2{fill:#fff;}</style></defs><title>arrow_right_white</title><g id="Project-Preview"><g id="Learn-More"><g id="Group"><g class="cls-1"><g class="cls-1"><path class="cls-2" d="M11,3.59A8.73,8.73,0,0,1,9.93.89a.32.32,0,0,1,.31-.35c.2,0,.37.3.46.44a9.19,9.19,0,0,0,2.75,2.7c.13.07.46.22.46.4s-.33.33-.46.39A9.35,9.35,0,0,0,10.7,7.18c-.09.13-.26.44-.46.44a.32.32,0,0,1-.31-.35A8.88,8.88,0,0,1,11,4.56H.89v-1Z" transform="translate(-0.89 -0.54)"/></g></g></g></g></g></svg>