<?xml version="1.0" encoding="utf-8"?>
<!-- Generator: Adobe Illustrator 24.0.0, SVG Export Plug-In . SVG Version: 6.00 Build 0)  -->
<svg version="1.1" id="Layer_1" xmlns="http://www.w3.org/2000/svg" xmlns:xlink="http://www.w3.org/1999/xlink" x="0px" y="0px"
	 viewBox="0 0 596.5 160" style="enable-background:new 0 0 596.5 160;" xml:space="preserve">
<style type="text/css">
	.st0{fill:#613CF5;}
</style>
<path class="st0" d="M579.9,26.8l0.5-4.1c5.3-0.2,10.5-0.1,16,0c0.1,1.1,0.2,1.9,0.2,2.8c0,15,0,30,0,45c0,4.5-0.8,9-2.6,13.2
	c-2.5,6.1-7.8,10.7-14.2,12.3c-9.7,2.6-19.4,2.7-28.9-1.1c-5.8-2.2-10.2-7.1-11.7-13.1c-0.2-0.8-0.3-1.6-0.5-2.9
	c5.7-0.2,11.1-0.2,16.3,0c4.1,5.9,11.7,8,18.3,5.2c4.8-1.9,7.2-7.4,6.3-14.4c-9.7,9.2-28.1,6.7-35.9-3.5
	c-11-14.2-5.5-40.1,16.3-44.3c5.2-1,10.5-0.8,15.4,1.8C576.9,24.6,578.5,25.6,579.9,26.8z M567.8,34.8c-4.2-0.2-8.2,1.9-10.3,5.5
	c-1.8,2.7-2.1,5.7-2,8.8c0.2,9.1,5.8,14,14.8,12.8c3.9-0.3,7.3-2.9,8.7-6.6c1.1-2.9,1.5-6,1.2-9.1C579.3,38.7,575.1,34.8,567.8,34.8
	L567.8,34.8z"/>
<path class="st0" d="M348.5,136.8H309c-0.6,3.5,1.7,7.2,5.2,9c5.7,2.9,12.5,1.5,17.3-3.5H348c-0.2,0.9-0.5,1.7-0.9,2.6
	c-2.8,6.7-8.6,11.7-15.7,13.6c-6.7,1.9-13.7,2-20.5,0.3c-9.7-2.4-15.8-8.5-18.3-18.2c-2-7.7-1.4-15.2,2.6-22.2s10.2-10.9,18.1-12.5
	c7-1.6,14.3-0.8,20.8,2.1c9.3,4.4,13.5,12.2,14.4,22.1C348.7,132.2,348.5,134.3,348.5,136.8z M331.2,125.9c-0.2-3.2-1.4-5.5-3.9-6.9
	c-4.6-2.6-10.2-2.5-14.7,0.2c-2.4,1.4-3.5,3.7-3.8,6.6H331.2z"/>
<path class="st0" d="M344.8,76.1c-8.5-0.2-16.2-2.3-22.2-8.7c-4.5-4.6-7-10.8-6.9-17.2c-0.1-3.1,0.2-6.1,0.9-9.1
	c2.8-10.2,9.7-16.3,19.8-18.6c8.4-2,16.7-1.7,24.5,2.6c7.5,4.1,11.8,10.5,13.5,18.8c1,4.9,0.6,10-1.2,14.7
	c-3.6,9.7-11,14.7-20.8,16.7C349.9,75.7,347.3,75.9,344.8,76.1z M345,34.3c-5.4,0-9.4,2.5-11.3,7.4c-2.1,5.1-1.6,10.9,1.1,15.6
	c2.6,4.6,6.9,6,11.9,5.6c4.5-0.4,7.5-2.8,9.3-6.8c1.7-4,2-8.5,0.7-12.7C355.2,37.6,351,34.3,345,34.3z"/>
<path class="st0" d="M436.6,74.5H420c-0.1-1.2-0.2-2.2-0.2-3.3c0-8.2,0.1-16.5,0-24.7c0-2.2-0.3-4.5-0.9-6.6c-1-3.1-3.4-4.8-6.7-5.1
	c-7.5-0.6-11.9,3.4-12.1,11.2c-0.2,8.3,0,16.7-0.1,25c0,1.1-0.1,2.1-0.2,3.5H383c-0.5-17.1,0.4-34.2-0.3-51.8
	c5.7-0.2,10.9-0.1,16.5,0c0.2,1.9,0.4,3.5,0.6,5.3c0.5-0.3,0.9-0.6,1.4-0.9c5.9-6.8,20.2-7,26.8-2.9c5.2,3.3,8.2,8.1,8.5,14
	c0.5,11.6,0.4,23.3,0.5,35C436.8,73.6,436.7,74.1,436.6,74.5z"/>
<path class="st0" d="M99.3,22.9c0.3,1.9,0.6,3.5,0.9,5.5c2.8-3.5,6.8-5.9,11.2-6.5c4.5-0.9,9.2-0.6,13.6,0.9
	c6.7,2.5,10.4,7.6,11.5,14.5c0.4,2.4,0.5,4.8,0.5,7.2c0.1,8.9,0,17.8,0,26.8v3.4c-5.7,0.2-11.1,0.2-16.7,0c-0.1-1.3-0.1-2.3-0.1-3.3
	c0-8.2,0-16.5,0-24.8c0-1.2-0.2-2.5-0.3-3.7c-0.7-7.3-6.7-9.3-12.8-7.6c-3.8,1.1-5.5,4.2-6.3,7.7c-0.4,1.9-0.6,3.8-0.6,5.7
	c-0.1,7.5,0,15,0,22.5v3.4c-5.7,0.2-11.1,0.2-16.7,0V22.9H99.3z"/>
<path class="st0" d="M513.1,74.2v-3c0-7.8,0-15.5,0-23.2c0-2.1-0.2-4.2-0.5-6.2c-0.4-3.5-3.2-6.3-6.7-6.8c-5.2-0.7-9.3,0.9-11,4.9
	c-1.1,2.5-1.6,5.3-1.7,8c-0.2,7.8-0.1,15.7-0.1,23.5v3.5c-5.7,0.2-11.1,0.1-16.7,0V22.9h15.9l0.9,5.5c2.8-3.5,6.8-5.9,11.3-6.5
	c4.1-0.8,8.3-0.6,12.4,0.5c7.4,2.3,11.4,7.5,12.7,14.9c0.4,2.5,0.6,5,0.5,7.5c0.1,8.7,0,17.5,0,26.2v2.9
	C528.1,74.9,516.3,75.2,513.1,74.2z"/>
<path class="st0" d="M99.3,158.2H83.4c-0.3-1.4-0.5-2.6-0.8-4.2c-1.2,1-2,2.1-3,2.6c-2.6,1.1-5.3,2.6-8.1,2.9
	c-3.9,0.5-7.9,0.3-11.8-0.5c-7.3-1.7-11-7.1-12.4-14.1c-0.4-2.2-0.6-4.4-0.6-6.7c-0.1-9.4,0-18.8,0-28.2c0-1,0.1-1.9,0.2-3.2h16.4
	c0.1,1.2,0.2,2.3,0.2,3.3c0,8.4,0,16.8,0,25.2c0,1.2,0,2.3,0.1,3.5c0.8,5.1,3.4,7.5,8.2,7.7c6.8,0.4,9.1-3.2,10.2-7.8
	c0.4-1.9,0.6-3.8,0.6-5.7c0.1-7.7,0-15.3,0.1-23c0-1.1,0.1-2.1,0.2-3.4h16.4V158.2z"/>
<path class="st0" d="M157.7,121.6h-16.3c-2.6-5.6-7.8-5-12.9-4.6c-1.9,0-3.6,1.4-3.8,3.3c0.2,2.1,1.9,2.7,3.5,3.1
	c3.5,0.8,7.1,1.2,10.5,2.1c4.4,1.1,8.6,2.4,12.8,4.1c10.8,4.7,9.8,19.4,2.3,25c-4,2.9-8.7,4.6-13.7,5c-8.3,0.9-16.5,0.5-24-3.7
	c-4.4-2.2-7.6-6.1-9-10.9c-0.2-0.9-0.3-1.9-0.4-2.8h16.1c0.3,0.5,0.6,0.9,1,1.3c1.3,1.2,2.5,2.7,4.1,3.4c3.7,1.5,7.7,1.7,11.5,0.6
	c3-0.7,3.5-1.8,3.2-5c-1.7-2.3-4.4-2.6-7-3.1c-3.9-0.8-7.9-1.3-11.8-2.1c-2.5-0.6-4.9-1.5-7.3-2.5c-10.8-4.7-9.8-17.1-4.4-22.7
	c3.9-4,8.8-5.7,14-6.4c5.6-0.8,11.3-0.5,16.8,0.9c5.9,1.6,10.9,4.4,13.4,10.2C156.8,118.4,157.3,120,157.7,121.6z"/>
<path class="st0" d="M281.1,37.7h-16c-3.1-5.7-8.3-5.4-13.5-4.4c-2.8,0.5-3.3,1.7-2.7,4.7c2.7,2.1,6.2,2.4,9.5,3
	c5.2,0.9,10.3,1.8,15.2,3.9c5.5,2.4,9.2,6.2,9.5,12.6c0.3,6.7-2.3,12-8.4,14.9c-3.5,1.7-7.3,2.8-11.2,3.2
	c-7.1,0.9-14.3,0.6-21.1-2.2c-5.4-2.3-9.5-5.8-11.4-11.5c-0.2-0.7-0.4-1.4-0.6-2.2c0-0.4,0-0.8,0.1-1.3h16.1
	c3.4,6.4,9.9,6.3,16.8,5.2c1.9-0.1,3.3-1.7,3.2-3.6c-0.1-1.8-1.4-3.2-3.2-3.4c-3.8-0.9-7.7-1.5-11.5-2.2c-4.4-0.9-8.8-1.9-12.8-4.1
	c-9.9-5.5-8.9-18.2-1.4-23.9c3.6-2.7,8-4.3,12.5-4.6c6.5-0.6,13-0.6,19.2,1.8c5.5,2.1,9.7,5.5,11.3,11.4
	C280.9,35.8,281,36.8,281.1,37.7z"/>
<path class="st0" d="M286.7,124.7h-16.4c-0.3-0.2-0.5-0.5-0.7-0.8c-2.4-5.4-7.8-6.6-13.9-5.1c-4,1-6.1,4.2-7.1,8
	c-1.1,4-1,8.3,0.3,12.3c1.4,4.4,4.2,7.2,8.8,7.8s9-0.4,11.8-4.8c0.3-0.5,0.7-0.9,1-1.4H287c-0.7,4.6-3,8.9-6.5,12
	c-4.3,4-9.9,6.4-15.7,6.9c-6.9,0.8-13.7,0.4-20-2.8c-8.6-4.3-12.9-11.6-13.6-20.9c-0.3-3.6,0-7.3,0.8-10.9
	c2.7-10.8,11.9-18.3,23.1-19.5c7.4-0.8,14.5,0,21,3.7c4.8,2.6,8.4,7.1,10,12.3C286.3,122.6,286.6,123.6,286.7,124.7z"/>
<path class="st0" d="M183.9,22.8h17.3c-7.2,17.5-14.3,34.6-21.3,51.8h-18.5c-7-17.1-14-34.1-21-51.1c1.8-1,14.5-1.2,17.9-0.4
	c4.2,11.7,8.5,23.6,12.9,35.7L183.9,22.8z"/>
<path class="st0" d="M198.8,119.2h-11.1c-0.2,0.9-0.3,1.8-0.4,2.8c0,6.2,0,12.3,0,18.5c0.1,4.8,1.1,5.8,5.9,6.1
	c1.2,0.1,2.5-0.1,4-0.2v11.5c-1.1,0.4-2.3,0.6-3.5,0.8c-4.6,0-9.3,0.3-13.9-0.4c-5.1-0.8-8.1-4.3-9.1-9.4c-0.4-2-0.5-4.1-0.6-6.2
	c-0.1-6.7,0-13.3,0-20v-3.2h-8.9v-12.6h8.9V91.8h17v14.8h11.6L198.8,119.2z"/>
<path class="st0" d="M18.5,88.2h17.3c0.1,1,0.3,1.9,0.3,2.8c0,14.8,0.1,29.6-0.1,44.5c-0.1,3.3-0.6,6.6-1.5,9.8
	c-1.8,7-6.5,11.5-13.5,13.4c-6.4,1.8-13,1.5-19.6,0.7c-0.5-0.1-1-0.2-1.4-0.4v-13.4c1.5,0,2.7,0,4,0c2.5,0.1,5,0,7.4-0.3
	c3.7-0.5,6.4-3.8,6.7-8c0.1-1.7,0.1-3.3,0.1-5c0-13.6,0-27.1,0-40.7C18.3,90.6,18.4,89.6,18.5,88.2z"/>
<path class="st0" d="M206.3,22.9h16.4v51.6h-16.4V22.9z"/>
<path class="st0" d="M307.2,74.5h-16.4V22.9h16.4V74.5z"/>
<path class="st0" d="M464.8,74.5h-16.4V22.9h16.4V74.5z"/>
<path class="st0" d="M206.3,106.7h16.4v51.4h-16.4V106.7z"/>
<path class="st0" d="M71.3,18.6h-56V4.3h56V18.6z"/>
<path class="st0" d="M15.3,74.5V60.2h56v14.3L15.3,74.5z"/>
<path class="st0" d="M15.2,45.6V31l56.4,1.9v14.7L15.2,45.6z"/>
<path class="st0" d="M222.8,0.1v13.5h-16.4V0.1C211.7-0.1,217,0,222.8,0.1z"/>
<path class="st0" d="M307.3,0.3v13.3h-16.4V0.3H307.3z"/>
<path class="st0" d="M464.9,0.1v13.5h-16.4V0.1C453.9-0.1,459.2,0,464.9,0.1z"/>
<path class="st0" d="M206.3,84.2h16.4v13.4c-5.5,0.2-10.9,0.2-16.4-0.1V84.2z"/>
</svg>
