<?xml version="1.0" encoding="utf-8"?>
<!-- Generator: Adobe Illustrator 24.0.0, SVG Export Plug-In . SVG Version: 6.00 Build 0)  -->
<svg version="1.1" id="Layer_1" xmlns="http://www.w3.org/2000/svg" xmlns:xlink="http://www.w3.org/1999/xlink" x="0px" y="0px"
	 viewBox="0 0 200.3 80.2" style="enable-background:new 0 0 200.3 80.2;" xml:space="preserve">
<style type="text/css">
	.st0{fill:#D85055;}
</style>
<path class="st0" d="M0,0v58.9h21.3v21.3l27.8-21.3V0H0z M39.3,31.1H27.8v11.4h11.5v6.6H9.8v-6.6h11.5V31.1H9.8v-6.6h29.5V31.1z
	 M39.3,16.3H9.8V9.8h29.5V16.3z"/>
<g>
	<polygon class="st0" points="69.4,41.2 60,41.2 60,34.4 58.9,34.4 58.9,49.1 60,49.1 60,42.2 69.4,42.2 69.4,49.1 70.5,49.1 
		70.5,34.4 69.4,34.4 	"/>
	<path class="st0" d="M85.6,43c0,3.6-1.9,5.4-4.9,5.4c-3.1,0-5-2-5-5.5v-8.5h-1.1V43c0,4.1,2.5,6.3,6.1,6.4c3.5,0,6-2.3,6-6.5v-8.5
		h-1.1V43z"/>
	<polygon class="st0" points="136.9,47.2 126.7,34.4 125.7,34.4 125.7,49.1 126.7,49.1 126.7,36 137.1,49.1 137.9,49.1 137.9,34.4 
		136.9,34.4 	"/>
	<polygon class="st0" points="97.8,43.1 91.9,34.4 90.8,34.4 90.8,49.1 91.9,49.1 91.9,36.3 97.7,44.8 97.8,44.8 103.6,36.3 
		103.6,49.1 104.7,49.1 104.7,34.4 103.7,34.4 	"/>
	<path class="st0" d="M114.7,34.3l-6.8,14.8h1.1l1.9-4.1h8.7l1.9,4.1h1.2l-6.9-14.8H114.7z M111.3,44l3.9-8.5l3.9,8.5H111.3z"/>
	<rect x="161.8" y="34.4" class="st0" width="1.1" height="14.7"/>
	<polygon class="st0" points="147.1,35.4 152.3,35.4 152.3,49.1 153.4,49.1 153.4,35.4 158.5,35.4 158.5,34.4 147.1,34.4 	"/>
	<polygon class="st0" points="168.8,42.2 177.2,42.2 177.2,41.2 168.8,41.2 168.8,35.4 178.2,35.4 178.2,34.4 167.7,34.4 
		167.7,49.1 178.3,49.1 178.3,48.1 168.8,48.1 	"/>
	<rect x="142.7" y="34.4" class="st0" width="1.1" height="14.7"/>
	<path class="st0" d="M186.6,41.3c-3.5-0.7-4.3-1.6-4.3-3.2c0-1.6,1.4-2.8,3.6-2.8c1.6,0,3,0.5,4.4,1.7l0.7-0.9
		c-1.4-1.2-2.9-1.8-5-1.8c-2.7,0-4.7,1.7-4.7,3.9s1.5,3.4,5,4.1c3.4,0.6,4.2,1.5,4.2,3.1c0,1.7-1.5,2.9-3.7,2.9s-3.7-0.7-5.3-2.2
		l-0.7,0.8l0,0c1.8,1.6,3.6,2.4,5.7,2.5c2.9,0,4.9-1.6,4.9-4C191.4,43.2,190,42,186.6,41.3z"/>
	<rect x="58.9" y="9.8" class="st0" width="1.1" height="14.7"/>
	<rect x="90.8" y="9.8" class="st0" width="1.1" height="14.7"/>
	<polygon class="st0" points="97.8,11.5 108.2,24.5 109,24.5 109,9.8 107.9,9.8 107.9,22.6 97.8,9.8 96.7,9.8 96.7,24.5 97.8,24.5 	
		"/>
	<polygon class="st0" points="65.9,9.8 64.8,9.8 64.8,24.5 74.5,24.5 74.5,23.5 65.9,23.5 	"/>
	<polygon class="st0" points="78.9,9.8 77.8,9.8 77.8,24.5 87.5,24.5 87.5,23.5 78.9,23.5 	"/>
	<path class="st0" d="M120.1,9.5c-4.4,0-7.4,3.6-7.4,7.7c0,4,2.9,7.6,7.4,7.5c4.4,0,7.4-3.6,7.4-7.6S124.6,9.5,120.1,9.5z
		 M120.2,23.7c-3.6,0-6.3-3-6.3-6.6c0-3.7,2.6-6.6,6.2-6.6c3.7,0,6.3,3,6.3,6.7S123.8,23.8,120.2,23.7z"/>
	<rect x="131.3" y="9.8" class="st0" width="1.1" height="14.7"/>
	<path class="st0" d="M141.8,16.8c-3.5-0.7-4.3-1.6-4.3-3.2s1.4-2.8,3.6-2.8c1.6,0,3,0.5,4.4,1.7l0.7-0.9c-1.4-1.2-2.9-1.8-5-1.8
		c-2.7,0-4.7,1.7-4.7,3.9s1.5,3.4,5,4.1c3.4,0.6,4.2,1.5,4.2,3.1c0,1.7-1.5,2.9-3.7,2.9s-3.7-0.7-5.3-2.2l-0.7,0.8
		c1.8,1.6,3.6,2.3,5.7,2.5c2.9,0,4.9-1.6,4.9-4C146.6,18.7,145.2,17.5,141.8,16.8z"/>
</g>
</svg>
