<svg id="Layer_1" data-name="Layer 1" xmlns="http://www.w3.org/2000/svg" viewBox="0 0 596.53 160"><path d="M605.57,59.63l.47-4.09c5.26-.22,10.49-.14,16,0,.08,1.14.2,1.94.2,2.75,0,15,0,30-.05,45a33,33,0,0,1-2.6,13.15,20.72,20.72,0,0,1-14.24,12.26c-9.73,2.62-19.43,2.72-28.89-1.06a19.24,19.24,0,0,1-11.71-13.14c-.22-.77-.26-1.59-.48-2.94,5.72-.22,11.14-.15,16.35,0a15.08,15.08,0,0,0,18.32,5.22c4.78-1.93,7.19-7.44,6.29-14.36-9.69,9.24-28.06,6.69-35.92-3.52-11-14.24-5.55-40.12,16.31-44.26,5.17-1,10.51-.75,15.38,1.79A44,44,0,0,1,605.57,59.63Zm-12.14,8a11.27,11.27,0,0,0-10.31,5.49c-1.78,2.67-2.14,5.7-2,8.85.25,9.06,5.81,14,14.82,12.85a10.26,10.26,0,0,0,8.72-6.58,18.52,18.52,0,0,0,1.15-9.07C605,71.57,600.79,67.59,593.43,67.61Z" transform="translate(-25.66 -32.83)"/><path d="M374.17,169.65H334.65c-.59,3.46,1.7,7.21,5.25,9,5.67,2.86,12.46,1.52,17.33-3.49h16.4a24.9,24.9,0,0,1-.85,2.57,23.41,23.41,0,0,1-15.69,13.57,39.85,39.85,0,0,1-20.48.34c-9.68-2.37-15.84-8.52-18.32-18.17-2-7.71-1.41-15.22,2.61-22.24s10.24-10.91,18.1-12.48a32.73,32.73,0,0,1,20.76,2.13c9.27,4.35,13.49,12.22,14.38,22.11C374.32,165,374.17,167.11,374.17,169.65Zm-17.34-10.9c-.16-3.25-1.44-5.53-3.89-6.87a14.46,14.46,0,0,0-14.71.25c-2.44,1.35-3.53,3.72-3.83,6.62Z" transform="translate(-25.66 -32.83)"/><path d="M370.42,108.89c-8.5-.15-16.19-2.32-22.19-8.66A24.35,24.35,0,0,1,341.34,83a34.68,34.68,0,0,1,.9-9.12c2.79-10.17,9.7-16.29,19.84-18.63,8.41-1.95,16.7-1.65,24.49,2.61,7.51,4.1,11.82,10.54,13.5,18.83a26.6,26.6,0,0,1-1.19,14.73c-3.57,9.69-11,14.71-20.78,16.66A75.36,75.36,0,0,1,370.42,108.89Zm.25-41.72c-5.37,0-9.43,2.54-11.26,7.44a17.81,17.81,0,0,0,1.15,15.63c2.61,4.58,6.87,6,11.9,5.59C377,95.47,380,93,381.79,89a18.39,18.39,0,0,0,.69-12.68C380.86,70.42,376.69,67.18,370.67,67.17Z" transform="translate(-25.66 -32.83)"/><path d="M462.22,107.31H445.65c-.09-1.19-.25-2.23-.25-3.28,0-8.24.06-16.49,0-24.73a23.71,23.71,0,0,0-.89-6.62c-1-3.14-3.39-4.81-6.73-5.06-7.53-.55-11.9,3.37-12.06,11.23-.17,8.32-.05,16.65-.06,25,0,1.06-.1,2.12-.16,3.46H408.66c-.45-17.11.38-34.18-.32-51.78,5.67-.15,10.92-.09,16.47,0,.23,1.87.41,3.46.63,5.3a7.42,7.42,0,0,0,1.35-.94c5.9-6.84,20.21-7,26.75-2.88,5.17,3.27,8.21,8.11,8.48,14,.54,11.63.42,23.3.55,35A6.45,6.45,0,0,1,462.22,107.31Z" transform="translate(-25.66 -32.83)"/><path d="M124.93,55.7c.32,1.86.59,3.46.93,5.5a17.76,17.76,0,0,1,11.2-6.55,26.13,26.13,0,0,1,13.56.89c6.7,2.49,10.35,7.61,11.51,14.52a45.65,45.65,0,0,1,.53,7.2c.06,8.92,0,17.83,0,26.75v3.44c-5.69.2-11.1.19-16.74,0-.06-1.33-.15-2.3-.15-3.27,0-8.25,0-16.5,0-24.75,0-1.24-.17-2.48-.28-3.72-.66-7.35-6.69-9.31-12.83-7.58-3.84,1.09-5.49,4.16-6.34,7.69a25.24,25.24,0,0,0-.61,5.69c-.06,7.5,0,15,0,22.5v3.44c-5.67.2-11.08.18-16.69,0V55.7Z" transform="translate(-25.66 -32.83)"/><path d="M538.78,107v-3c0-7.75,0-15.5,0-23.25a40.35,40.35,0,0,0-.53-6.21,7.83,7.83,0,0,0-6.72-6.77c-5.23-.69-9.35.9-11,4.87a22.69,22.69,0,0,0-1.73,8c-.22,7.83-.07,15.67-.07,23.5v3.46c-5.69.21-11.09.12-16.7,0V55.7H517.9l.89,5.5a17.81,17.81,0,0,1,11.26-6.55,26.8,26.8,0,0,1,12.37.48c7.37,2.27,11.38,7.54,12.69,14.94a44.21,44.21,0,0,1,.53,7.46c.07,8.74,0,17.49,0,26.24v2.86C553.8,107.76,542,108,538.78,107Z" transform="translate(-25.66 -32.83)"/><path d="M125,191H109.11c-.26-1.37-.49-2.63-.78-4.17-1.16,1-2,2.08-3,2.55-2.64,1.15-5.34,2.6-8.12,2.87a36.7,36.7,0,0,1-11.84-.47c-7.26-1.69-11-7.08-12.42-14.14a36.49,36.49,0,0,1-.58-6.69c-.06-9.41,0-18.82,0-28.23,0-1,.1-1.95.16-3.16H88.92c.08,1.23.22,2.28.22,3.34,0,8.4,0,16.81,0,25.22a22.49,22.49,0,0,0,.14,3.49c.8,5.14,3.44,7.47,8.22,7.72,6.78.35,9.06-3.24,10.16-7.77a25.17,25.17,0,0,0,.63-5.68c.07-7.66,0-15.32.06-23,0-1.05.14-2.1.23-3.35H125Z" transform="translate(-25.66 -32.83)"/><path d="M183.33,154.39H167c-2.64-5.55-7.82-5-12.86-4.61a3.85,3.85,0,0,0-3.82,3.33c.25,2.09,1.85,2.73,3.49,3.1,3.48.78,7.05,1.22,10.49,2.14a92.21,92.21,0,0,1,12.77,4.1c10.8,4.73,9.83,19.37,2.27,25a27.36,27.36,0,0,1-13.67,5c-8.31.91-16.48.46-24-3.68a17.65,17.65,0,0,1-9-10.86,18.94,18.94,0,0,1-.36-2.81h16.06a8.59,8.59,0,0,0,1,1.31c1.33,1.2,2.54,2.74,4.11,3.43a17.88,17.88,0,0,0,11.51.61c3-.71,3.53-1.84,3.23-5-1.69-2.31-4.44-2.59-7-3.11-3.9-.8-7.88-1.26-11.76-2.15a43.39,43.39,0,0,1-7.29-2.53c-10.84-4.69-9.84-17.12-4.43-22.74,3.87-4,8.76-5.69,14-6.38a42.61,42.61,0,0,1,16.82.93c5.85,1.59,10.85,4.35,13.39,10.23A43.77,43.77,0,0,1,183.33,154.39Z" transform="translate(-25.66 -32.83)"/><path d="M306.72,70.52h-16c-3.08-5.68-8.26-5.36-13.49-4.4-2.75.5-3.26,1.68-2.7,4.73,2.72,2.11,6.18,2.36,9.49,3,5.16.91,10.32,1.78,15.17,3.93,5.52,2.44,9.24,6.2,9.51,12.55.28,6.68-2.29,12-8.44,14.88a37.28,37.28,0,0,1-11.16,3.25c-7.14.86-14.32.61-21.12-2.25-5.37-2.26-9.46-5.84-11.42-11.5a16.54,16.54,0,0,1-.58-2.17,6.41,6.41,0,0,1,.08-1.26h16.06c3.43,6.43,9.91,6.28,16.79,5.18a3.5,3.5,0,0,0,3.24-3.58,3.67,3.67,0,0,0-3.18-3.41c-3.8-.87-7.66-1.49-11.49-2.23-4.42-.86-8.78-1.89-12.76-4.12-9.85-5.49-8.92-18.16-1.37-23.92a24,24,0,0,1,12.48-4.62c6.48-.64,13-.58,19.22,1.81,5.47,2.09,9.71,5.45,11.33,11.38A22.36,22.36,0,0,1,306.72,70.52Z" transform="translate(-25.66 -32.83)"/><path d="M312.38,157.55H296a4.2,4.2,0,0,1-.66-.81c-2.43-5.43-7.83-6.64-13.88-5.12-4.05,1-6.09,4.18-7.12,8a21.73,21.73,0,0,0,.33,12.3c1.35,4.36,4.23,7.21,8.81,7.79s9-.39,11.77-4.78c.31-.48.68-.93,1-1.38h16.39a19.94,19.94,0,0,1-6.5,12,26.64,26.64,0,0,1-15.74,6.86c-6.87.78-13.66.42-20-2.76-8.58-4.32-12.92-11.56-13.56-20.94a35,35,0,0,1,.78-10.86c2.7-10.78,11.91-18.3,23.09-19.52,7.37-.8,14.46,0,21,3.7a21.12,21.12,0,0,1,10,12.3A31,31,0,0,1,312.38,157.55Z" transform="translate(-25.66 -32.83)"/><path d="M209.61,55.65h17.26c-7.22,17.51-14.26,34.6-21.32,51.75H187Q176.5,81.82,166,56.27c1.84-1,14.52-1.23,17.94-.4,4.23,11.73,8.52,23.59,12.9,35.72Z" transform="translate(-25.66 -32.83)"/><path d="M224.47,152H213.35a21.55,21.55,0,0,0-.37,2.75c0,6.16,0,12.32,0,18.48.05,4.77,1.1,5.82,5.87,6.07,1.22.06,2.46-.11,4-.19v11.48a16.31,16.31,0,0,1-3.47.78c-4.63,0-9.34.32-13.88-.38-5.06-.78-8.13-4.33-9.07-9.43a36.74,36.74,0,0,1-.55-6.2c-.07-6.66,0-13.32,0-20v-3.25H187V139.5h8.87V124.59h17v14.75h11.58Z" transform="translate(-25.66 -32.83)"/><path d="M44.16,121H61.43c.1,1,.26,1.88.26,2.76,0,14.82.08,29.64-.08,44.47a41,41,0,0,1-1.48,9.82c-1.83,7-6.55,11.53-13.47,13.45-6.42,1.78-13,1.49-19.57.7a13.2,13.2,0,0,1-1.43-.38V178.46c1.51,0,2.74,0,4,0a63.06,63.06,0,0,0,7.42-.28c3.72-.53,6.4-3.84,6.74-8,.14-1.66.13-3.33.13-5q0-20.35,0-40.72C43.93,123.45,44.07,122.4,44.16,121Z" transform="translate(-25.66 -32.83)"/><path d="M232,55.7h16.42v51.6H232Z" transform="translate(-25.66 -32.83)"/><path d="M332.91,107.31H316.48V55.69h16.43Z" transform="translate(-25.66 -32.83)"/><path d="M490.48,107.3H474.06V55.7h16.42Z" transform="translate(-25.66 -32.83)"/><path d="M232,139.56h16.37V191H232Z" transform="translate(-25.66 -32.83)"/><path d="M97,51.41H41V37.09H97Z" transform="translate(-25.66 -32.83)"/><path d="M41,107.32V93h56v14.29Z" transform="translate(-25.66 -32.83)"/><path d="M40.82,78.46V63.88l56.37,1.9V80.46Z" transform="translate(-25.66 -32.83)"/><path d="M248.41,32.89V46.38H232V32.93C237.36,32.77,242.68,32.85,248.41,32.89Z" transform="translate(-25.66 -32.83)"/><path d="M332.92,33.12v13.3H316.5V33.12Z" transform="translate(-25.66 -32.83)"/><path d="M490.52,32.89V46.41H474.1V32.93C479.51,32.76,484.83,32.86,490.52,32.89Z" transform="translate(-25.66 -32.83)"/><path d="M232,117h16.41v13.42c-5.47.17-10.86.23-16.41-.07Z" transform="translate(-25.66 -32.83)"/></svg>